<svg xmlns="http://www.w3.org/2000/svg" version="1.1" xmlns:xlink="http://www.w3.org/1999/xlink" xmlns:svgjs="http://svgjs.dev/svgjs" width="1000" height="131" viewBox="0 0 1000 131"><g transform="matrix(1,0,0,1,-0.6060606060606233,0.5284897592843265)"><svg viewBox="0 0 396 52" data-background-color="#ffffff" preserveAspectRatio="xMidYMid meet" height="131" width="1000" xmlns="http://www.w3.org/2000/svg" xmlns:xlink="http://www.w3.org/1999/xlink"><g id="tight-bounds" transform="matrix(1,0,0,1,0.2400000000000091,-0.20978219452507574)"><svg viewBox="0 0 395.52 52.41956438905012" height="52.41956438905012" width="395.52"><g><svg viewBox="0 0 473.0102343749999 62.689599609375" height="52.41956438905012" width="395.52"><g><svg viewBox="0 0 473.0102343749999 62.689599609375" height="62.689599609375" width="473.0102343749999"><g id="textblocktransform"><svg viewBox="0 0 473.0102343749999 62.689599609375" height="62.689599609375" width="473.0102343749999" id="textblock"><g><svg viewBox="0 0 473.0102343749999 62.689599609375" height="62.689599609375" width="473.0102343749999"><g><svg><g></g><g></g></svg></g><g><svg><g><svg></svg></g><g></g></svg></g><g id="text-0"><svg viewBox="0 0 473.0102343749999 62.689599609375" height="62.689599609375" width="473.0102343749999"><g transform="matrix(1,0,0,1,0,7.414558096719528)"><svg width="395.5199999999999" viewBox="3.05 -38.26 320.15999999999997 38.75" height="47.860483415935946" data-palette-color="#ffffff"><path d="M35.89-17.9L35.89-17.9Q35.89-9.33 31.56-4.42 27.22 0.49 19.51 0.49L19.51 0.49Q11.62 0.49 7.34-4.33 3.05-9.16 3.05-17.94L3.05-17.94Q3.05-26.66 7.35-31.46 11.65-36.25 19.56-36.25L19.56-36.25Q27.25-36.25 31.57-31.37 35.89-26.49 35.89-17.9ZM7.45-17.9L7.45-17.9Q7.45-10.64 10.53-6.9 13.62-3.15 19.51-3.15L19.51-3.15Q25.44-3.15 28.47-6.88 31.49-10.62 31.49-17.9L31.49-17.9Q31.49-25.1 28.48-28.82 25.46-32.54 19.56-32.54L19.56-32.54Q13.62-32.54 10.53-28.8 7.45-25.05 7.45-17.9ZM53.83 0L49.09 0 38.94-26.76 43.28-26.76 49.05-10.89Q51-5.32 51.34-3.66L51.34-3.66 51.54-3.66Q51.8-4.96 53.23-9.02 54.66-13.09 59.64-26.76L59.64-26.76 63.99-26.76 53.83 0ZM79.58 0.49L79.58 0.49Q73.65 0.49 70.22-3.13 66.79-6.74 66.79-13.16L66.79-13.16Q66.79-19.63 69.98-23.44 73.16-27.25 78.54-27.25L78.54-27.25Q83.56-27.25 86.49-23.94 89.42-20.63 89.42-15.21L89.42-15.21 89.42-12.65 70.99-12.65Q71.11-7.93 73.37-5.49 75.63-3.05 79.73-3.05L79.73-3.05Q84.05-3.05 88.28-4.86L88.28-4.86 88.28-1.25Q86.13-0.32 84.21 0.09 82.29 0.49 79.58 0.49ZM78.49-23.85L78.49-23.85Q75.26-23.85 73.35-21.75 71.43-19.65 71.09-15.94L71.09-15.94 85.08-15.94Q85.08-19.78 83.37-21.81 81.66-23.85 78.49-23.85ZM108.54-27.25L108.54-27.25Q110.32-27.25 111.74-26.95L111.74-26.95 111.17-23.19Q109.51-23.56 108.24-23.56L108.24-23.56Q105-23.56 102.69-20.92 100.38-18.29 100.38-14.36L100.38-14.36 100.38 0 96.33 0 96.33-26.76 99.68-26.76 100.14-21.8 100.33-21.8Q101.82-24.41 103.92-25.83 106.02-27.25 108.54-27.25ZM128.8-26.76L128.8-23.61 121.99-23.61 121.99 0 117.93 0 117.93-23.61 113.15-23.61 113.15-25.44 117.93-26.9 117.93-28.39Q117.93-38.26 126.55-38.26L126.55-38.26Q128.68-38.26 131.53-37.4L131.53-37.4 130.48-34.16Q128.14-34.91 126.48-34.91L126.48-34.91Q124.18-34.91 123.09-33.39 121.99-31.86 121.99-28.49L121.99-28.49 121.99-26.76 128.8-26.76ZM137.73-37.99L137.73 0 133.68 0 133.68-37.99 137.73-37.99ZM169.42-13.4L169.42-13.4Q169.42-6.86 166.12-3.19 162.83 0.49 157.02 0.49L157.02 0.49Q153.43 0.49 150.64-1.2 147.86-2.88 146.35-6.03 144.83-9.18 144.83-13.4L144.83-13.4Q144.83-19.95 148.11-23.6 151.38-27.25 157.19-27.25L157.19-27.25Q162.8-27.25 166.11-23.51 169.42-19.78 169.42-13.4ZM149.03-13.4L149.03-13.4Q149.03-8.28 151.08-5.59 153.13-2.91 157.11-2.91L157.11-2.91Q161.09-2.91 163.16-5.58 165.22-8.25 165.22-13.4L165.22-13.4Q165.22-18.51 163.16-21.15 161.09-23.8 157.07-23.8L157.07-23.8Q153.09-23.8 151.06-21.19 149.03-18.58 149.03-13.4ZM203.18 0L198.37 0 193.46-15.7Q193-17.14 191.73-22.24L191.73-22.24 191.54-22.24Q190.56-17.97 189.83-15.65L189.83-15.65 184.77 0 180.09 0 172.79-26.76 177.03-26.76Q179.62-16.67 180.98-11.4 182.33-6.13 182.53-4.3L182.53-4.3 182.72-4.3Q182.99-5.69 183.59-7.9 184.19-10.11 184.63-11.4L184.63-11.4 189.53-26.76 193.93-26.76 198.71-11.4Q200.08-7.2 200.57-4.35L200.57-4.35 200.76-4.35Q200.86-5.22 201.29-7.06 201.72-8.89 206.38-26.76L206.38-26.76 210.58-26.76 203.18 0ZM236.16-9.5L236.16-9.5Q236.16-4.79 232.74-2.15 229.33 0.49 223.47 0.49L223.47 0.49Q217.12 0.49 213.7-1.15L213.7-1.15 213.7-5.15Q215.9-4.22 218.49-3.69 221.07-3.15 223.61-3.15L223.61-3.15Q227.76-3.15 229.86-4.72 231.96-6.3 231.96-9.11L231.96-9.11Q231.96-10.96 231.22-12.15 230.47-13.33 228.73-14.33 226.98-15.33 223.42-16.6L223.42-16.6Q218.44-18.38 216.3-20.83 214.16-23.27 214.16-27.2L214.16-27.2Q214.16-31.32 217.27-33.76 220.37-36.21 225.47-36.21L225.47-36.21Q230.79-36.21 235.26-34.25L235.26-34.25 233.96-30.64Q229.55-32.5 225.37-32.5L225.37-32.5Q222.07-32.5 220.22-31.08 218.36-29.66 218.36-27.15L218.36-27.15Q218.36-25.29 219.05-24.11 219.73-22.92 221.35-21.94 222.98-20.95 226.32-19.75L226.32-19.75Q231.94-17.75 234.05-15.45 236.16-13.16 236.16-9.5ZM251.49-2.86L251.49-2.86Q252.57-2.86 253.57-3.02 254.57-3.17 255.15-3.34L255.15-3.34 255.15-0.24Q254.49 0.07 253.21 0.28 251.93 0.49 250.91 0.49L250.91 0.49Q243.14 0.49 243.14-7.69L243.14-7.69 243.14-23.61 239.31-23.61 239.31-25.56 243.14-27.25 244.85-32.96 247.19-32.96 247.19-26.76 254.96-26.76 254.96-23.61 247.19-23.61 247.19-7.86Q247.19-5.44 248.34-4.15 249.49-2.86 251.49-2.86ZM279.96 0L276.95 0 276.15-3.81 275.95-3.81Q273.95-1.29 271.96-0.4 269.97 0.49 266.99 0.49L266.99 0.49Q263.01 0.49 260.75-1.56 258.5-3.61 258.5-7.4L258.5-7.4Q258.5-15.5 271.46-15.89L271.46-15.89 276-16.04 276-17.7Q276-20.85 274.65-22.35 273.29-23.85 270.31-23.85L270.31-23.85Q266.97-23.85 262.74-21.8L262.74-21.8 261.5-24.9Q263.48-25.98 265.83-26.59 268.19-27.2 270.56-27.2L270.56-27.2Q275.34-27.2 277.65-25.07 279.96-22.95 279.96-18.26L279.96-18.26 279.96 0ZM267.8-2.86L267.8-2.86Q271.58-2.86 273.74-4.93 275.9-7.01 275.9-10.74L275.9-10.74 275.9-13.16 271.85-12.99Q267.02-12.82 264.88-11.49 262.74-10.16 262.74-7.35L262.74-7.35Q262.74-5.15 264.07-4 265.4-2.86 267.8-2.86ZM296.95-2.86L296.95-2.86Q298.02-2.86 299.02-3.02 300.02-3.17 300.61-3.34L300.61-3.34 300.61-0.24Q299.95 0.07 298.67 0.28 297.38 0.49 296.36 0.49L296.36 0.49Q288.6 0.49 288.6-7.69L288.6-7.69 288.6-23.61 284.76-23.61 284.76-25.56 288.6-27.25 290.3-32.96 292.65-32.96 292.65-26.76 300.41-26.76 300.41-23.61 292.65-23.61 292.65-7.86Q292.65-5.44 293.8-4.15 294.94-2.86 296.95-2.86ZM323.21-7.3L323.21-7.3Q323.21-3.56 320.43-1.54 317.65 0.49 312.62 0.49L312.62 0.49Q307.29 0.49 304.32-1.2L304.32-1.2 304.32-4.96Q306.24-3.98 308.45-3.42 310.66-2.86 312.71-2.86L312.71-2.86Q315.89-2.86 317.6-3.87 319.31-4.88 319.31-6.96L319.31-6.96Q319.31-8.52 317.95-9.63 316.6-10.74 312.67-12.26L312.67-12.26Q308.93-13.65 307.36-14.69 305.78-15.72 305.01-17.04 304.24-18.36 304.24-20.19L304.24-20.19Q304.24-23.46 306.9-25.35 309.56-27.25 314.2-27.25L314.2-27.25Q318.52-27.25 322.65-25.49L322.65-25.49 321.21-22.19Q317.18-23.85 313.91-23.85L313.91-23.85Q311.03-23.85 309.56-22.95 308.1-22.05 308.1-20.46L308.1-20.46Q308.1-19.38 308.65-18.63 309.2-17.87 310.42-17.19 311.64-16.5 315.11-15.21L315.11-15.21Q319.87-13.48 321.54-11.72 323.21-9.96 323.21-7.3Z" opacity="1" transform="matrix(1,0,0,1,0,0)" fill="#ffffff" class="wordmark-text-0" data-fill-palette-color="primary"></path></svg></g><g><svg xmlns="http://www.w3.org/2000/svg" xmlns:xlink="http://www.w3.org/1999/xlink" version="1.1" x="410.3206347656249" y="0" viewBox="10.6 10.6 78.80000000000001 78.80000000000001" style="enable-background:new 0 0 100 100;" xml:space="preserve" height="62.689599609375" width="62.689599609375" class="icon-z$-0" data-fill-palette-color="accent" id="z$-0"><path d="M77.8 22.2L50 10.6 22.2 22.2 10.6 50l11.5 27.8L50 89.4l27.8-11.5L89.4 50 77.8 22.2zM86.9 48.5l-12.5-3.4c0-0.2 0-0.4 0-0.6 0-2-1.1-3.8-2.7-4.8l5.6-14.7L86.9 48.5zM45.8 60.3c-0.3-2.3-1.6-4.2-3.5-5.3l5-12.1c0.9 0.3 1.8 0.4 2.7 0.4s1.9-0.1 2.7-0.4l6.2 15c-0.8 0.6-1.4 1.4-1.6 2.4H45.8zM61.2 57.2c-0.2 0-0.4 0-0.7 0.1l-6.2-15c1.3-0.7 2.3-1.7 3.1-2.9l6.2 3.4c-0.2 0.6-0.3 1.2-0.3 1.8 0 1.9 1 3.6 2.4 4.6L62 57.3C61.7 57.2 61.5 57.2 61.2 57.2zM38.7 54c-0.8 0-1.6 0.1-2.3 0.4l-5.6-11.6c0.9-0.7 1.5-1.8 1.5-3.1 0 0 0 0 0-0.1l9.3-2.3c0.7 2.1 2.2 3.9 4.2 4.9l-5 12C40.1 54.1 39.4 54 38.7 54zM68.8 39.1c-1.8 0-3.3 0.8-4.3 2.1l-6.2-3.4c0.5-1.1 0.7-2.3 0.7-3.5 0-1-0.2-1.9-0.5-2.8l17-7.1L70 39.2C69.6 39.1 69.2 39.1 68.8 39.1zM41.1 35.6l-9.3 2.3c-0.7-1.3-2-2.2-3.6-2.2-0.1 0-0.2 0-0.3 0l-3.6-11.3 17.1 7.1c-0.3 0.9-0.5 1.8-0.5 2.8C41 34.8 41 35.2 41.1 35.6zM25.4 42.5c0.7 0.7 1.7 1.2 2.8 1.2 0.3 0 0.6 0 0.9-0.1l5.6 11.6c-1 0.6-1.8 1.5-2.4 2.5l-18.7-7.7L25.4 42.5zM63.6 58l3.8-8.1c0.5 0.1 1 0.2 1.5 0.2 2.2 0 4.2-1.3 5-3.2l12.1 3.2L64.5 59C64.3 58.6 63.9 58.3 63.6 58zM76.7 24L76.7 24 76.7 24 76.7 24zM57.8 29.9c-1.4-2.5-4-4.2-6.9-4.5V12.9l24 9.9L57.8 29.9zM49.1 12.9v12.5c-3 0.3-5.5 2-6.9 4.5l-17.1-7.1L49.1 12.9zM22.8 25.2l3.5 11c-1.2 0.7-2 2-2 3.4 0 0.5 0.1 0.9 0.3 1.4l-11.2 7.1L22.8 25.2zM12.7 49.5L12.7 49.5 12.7 49.5 12.7 49.5zM13.2 51.6l18.5 7.7c-0.2 0.6-0.3 1.2-0.3 1.9 0 1.7 0.6 3.2 1.6 4.5l-9.9 10L13.2 51.6zM23.5 76.5L23.5 76.5 23.5 76.5 23.5 76.5zM24.4 76.9l9.9-10c1.2 0.9 2.7 1.5 4.4 1.5 0.7 0 1.4-0.1 2-0.3l7.7 18.7L24.4 76.9zM42.3 67.4c1.9-1.1 3.3-3.1 3.5-5.4h11.5c0.2 1 0.8 1.9 1.7 2.4L50 86.1 42.3 67.4zM60.6 65.1c0.2 0 0.4 0.1 0.6 0.1 0.8 0 1.5-0.2 2.1-0.6l12.3 12.3-24 9.9L60.6 65.1zM76.9 75.6L64.5 63.3c0.4-0.6 0.6-1.3 0.6-2.1 0-0.2 0-0.4-0.1-0.6l21.7-9L76.9 75.6zM87.3 49.5L87.3 49.5 87.3 49.5 87.3 49.5z" fill="#ff8300" data-fill-palette-color="accent"></path></svg></g></svg></g></svg></g></svg></g></svg></g><g></g></svg></g><defs></defs></svg><rect width="395.52" height="52.41956438905012" fill="none" stroke="none" visibility="hidden"></rect></g></svg></g></svg>